<svg xmlns="http://www.w3.org/2000/svg" width="368.644" height="114.263" viewBox="0 0 368.644 114.263">
  <g id="Group_13" data-name="Group 13" transform="translate(414.151 -532.418)">
    <g id="Group_8" data-name="Group 8" transform="translate(-414.151 532.418)">
      <path id="Path_2" data-name="Path 2" d="M-382.454,646.5l-1.042-.727a82.275,82.275,0,0,1-12.978-11.185,67.045,67.045,0,0,1-9.647-13.2,63.847,63.847,0,0,1-5.979-15.012,66.192,66.192,0,0,1-2.051-16.575,56.4,56.4,0,0,1,2.508-16.754,66.618,66.618,0,0,1,6.95-15.25,75.463,75.463,0,0,1,10.6-13.4,97.659,97.659,0,0,1,13.4-11.256l1.042-.727,8.023,12.359-.879.693a105.121,105.121,0,0,0-10.814,9.775,62.87,62.87,0,0,0-8.21,10.563,50.434,50.434,0,0,0-5.22,11.5,42.4,42.4,0,0,0-1.835,12.5,53.659,53.659,0,0,0,1.413,12.472,47.041,47.041,0,0,0,4.282,11.239,54.037,54.037,0,0,0,7.244,10.291,80.27,80.27,0,0,0,10.345,9.642l.879.693Zm2.125-110.6a95.294,95.294,0,0,0-12.02,10.237A72.973,72.973,0,0,0-402.6,559.087a64.21,64.21,0,0,0-6.694,14.69,53.928,53.928,0,0,0-2.4,16.024,63.742,63.742,0,0,0,1.973,15.961,61.544,61.544,0,0,0,5.748,14.435,64.608,64.608,0,0,0,9.3,12.713,79.249,79.249,0,0,0,11.553,10.111l5.419-8.347a81.627,81.627,0,0,1-9.784-9.239,56.469,56.469,0,0,1-7.574-10.762,49.43,49.43,0,0,1-4.5-11.826,56.009,56.009,0,0,1-1.481-13.044,44.881,44.881,0,0,1,1.943-13.219,52.836,52.836,0,0,1,5.476-12.057,65.375,65.375,0,0,1,8.527-10.978,106.545,106.545,0,0,1,10.192-9.308Z" transform="translate(414.151 -532.418)" fill="#00f8ff"/>
    </g>
    <g id="Group_9" data-name="Group 9" transform="translate(-362.442 532.418)">
      <path id="Path_3" data-name="Path 3" d="M-382.281,646.5l-8.026-12.359.88-.693a80.66,80.66,0,0,0,10.345-9.642,54.148,54.148,0,0,0,7.244-10.291,46.935,46.935,0,0,0,4.279-11.239,53.522,53.522,0,0,0,1.415-12.472,42.476,42.476,0,0,0-1.835-12.5,50.532,50.532,0,0,0-5.223-11.5,62.9,62.9,0,0,0-8.207-10.563,104.9,104.9,0,0,0-10.816-9.775l-.877-.693,8.023-12.359,1.042.727A97.822,97.822,0,0,1-370.644,544.4a75.432,75.432,0,0,1,10.6,13.4,66.713,66.713,0,0,1,6.95,15.25,56.478,56.478,0,0,1,2.508,16.754,66.211,66.211,0,0,1-2.051,16.575v0a63.965,63.965,0,0,1-5.979,15.01,66.822,66.822,0,0,1-9.647,13.2,82.14,82.14,0,0,1-12.976,11.185Zm-4.749-11.824,5.419,8.347a79.1,79.1,0,0,0,11.551-10.111,64.645,64.645,0,0,0,9.3-12.713,61.553,61.553,0,0,0,5.748-14.435h0a63.76,63.76,0,0,0,1.973-15.961,53.928,53.928,0,0,0-2.4-16.024,64.152,64.152,0,0,0-6.694-14.69,73.013,73.013,0,0,0-10.254-12.956,95.488,95.488,0,0,0-12.018-10.237l-5.419,8.345a106.554,106.554,0,0,1,10.192,9.308,65.564,65.564,0,0,1,8.527,10.978,53.042,53.042,0,0,1,5.476,12.057,44.877,44.877,0,0,1,1.943,13.219,56.016,56.016,0,0,1-1.481,13.044,49.534,49.534,0,0,1-4.5,11.826,56.645,56.645,0,0,1-7.574,10.762A81.839,81.839,0,0,1-387.029,634.673Z" transform="translate(393.102 -532.418)" fill="#00f8ff"/>
    </g>
    <g id="Group_10" data-name="Group 10" transform="translate(-269.775 573.165)">
      <path id="Path_4" data-name="Path 4" d="M-307.924,582.621H-355.38V569.272h47.456Zm-45-2.457h42.543v-8.436h-42.543Zm45-17.81H-355.38V549.005h47.456Zm-45-2.457h42.543v-8.436h-42.543Z" transform="translate(355.38 -549.005)" fill="#00f8ff"/>
    </g>
    <g id="Group_11" data-name="Group 11" transform="translate(-204.966 557.158)">
      <path id="Path_5" data-name="Path 5" d="M-320.948,607.873-329,595.237l30.28-20.009L-329,555.123l8.048-12.634,48.132,32.692Zm-4.68-11.919,5.392,8.465,43.049-29.238-43.049-29.236-5.392,8.465,31.356,20.822Z" transform="translate(328.998 -542.489)" fill="#00f8ff"/>
    </g>
    <g id="Group_12" data-name="Group 12" transform="translate(-105.106 532.924)">
      <path id="Path_6" data-name="Path 6" d="M-228.749,646.381H-236.5a40.973,40.973,0,0,1-12.246-1.629,21.613,21.613,0,0,1-8.632-4.953,19.732,19.732,0,0,1-5-8.153,35.206,35.206,0,0,1-1.56-10.934v-3.09a31,31,0,0,0-1.248-8.9,24.7,24.7,0,0,0-3.763-7.574,26.255,26.255,0,0,0-6.424-6.092,35.915,35.915,0,0,0-9.3-4.383l-3.673-1.172,3.673-1.169a36.293,36.293,0,0,0,9.3-4.363,25.873,25.873,0,0,0,6.421-6.063,24.724,24.724,0,0,0,3.763-7.6,31.256,31.256,0,0,0,1.248-8.925V558.29a35.2,35.2,0,0,1,1.56-10.934,19.727,19.727,0,0,1,5-8.153,21.593,21.593,0,0,1,8.627-4.952,41.042,41.042,0,0,1,12.249-1.626h7.755v12.909H-236.5a16.941,16.941,0,0,0-5.284.771,9.707,9.707,0,0,0-3.815,2.287,10.173,10.173,0,0,0-2.4,3.9,17.447,17.447,0,0,0-.862,5.8v2.9c0,7.461-1.258,13.683-3.744,18.5a24.124,24.124,0,0,1-9.129,9.816,24.136,24.136,0,0,1,9.129,9.814c2.486,4.815,3.744,11.04,3.744,18.5v2.894a17.4,17.4,0,0,0,.862,5.8,10.157,10.157,0,0,0,2.4,3.906,9.676,9.676,0,0,0,3.815,2.285,16.869,16.869,0,0,0,5.284.774h7.755Zm-51.93-56.877a35.872,35.872,0,0,1,6.684,3.52,28.641,28.641,0,0,1,7.023,6.67,27.137,27.137,0,0,1,4.137,8.323,33.541,33.541,0,0,1,1.351,9.605v3.09a32.794,32.794,0,0,0,1.437,10.17,17.288,17.288,0,0,0,4.373,7.153,19.15,19.15,0,0,0,7.664,4.373,38.548,38.548,0,0,0,11.5,1.516h5.3v-8h-5.3a19.328,19.328,0,0,1-6.053-.9,12.1,12.1,0,0,1-4.771-2.869,12.611,12.611,0,0,1-3-4.832,19.852,19.852,0,0,1-1-6.618v-2.894c0-7.068-1.167-12.912-3.469-17.375a21.75,21.75,0,0,0-10.067-9.834l-2.292-1.108,2.292-1.105A21.769,21.769,0,0,0-254.8,578.56c2.3-4.464,3.469-10.31,3.469-17.373v-2.9a19.871,19.871,0,0,1,1-6.618,12.629,12.629,0,0,1,3-4.83,12.1,12.1,0,0,1,4.771-2.869,19.324,19.324,0,0,1,6.053-.9h5.3v-8h-5.3a38.62,38.62,0,0,0-11.507,1.511,19.194,19.194,0,0,0-7.66,4.375,17.292,17.292,0,0,0-4.375,7.156,32.755,32.755,0,0,0-1.437,10.168v3.093a33.842,33.842,0,0,1-1.349,9.625,27.21,27.21,0,0,1-4.139,8.35A28.307,28.307,0,0,1-274,586.005,36.021,36.021,0,0,1-280.679,589.5Z" transform="translate(288.348 -532.624)" fill="#00f8ff"/>
    </g>
  </g>
</svg>
