<svg xmlns="http://www.w3.org/2000/svg" xmlns:xlink="http://www.w3.org/1999/xlink" width="90.391" height="206.34" viewBox="0 0 90.391 206.34">
  <defs>
    <linearGradient id="linear-gradient" x1="0.954" y1="1.098" x2="0.046" y2="-0.098" gradientUnits="objectBoundingBox">
      <stop offset="0" stop-color="#1c1c1c"/>
      <stop offset="0.188" stop-color="#174041"/>
      <stop offset="0.603" stop-color="#0b9b9f"/>
      <stop offset="1" stop-color="#00f8ff"/>
    </linearGradient>
  </defs>
  <path id="Path_8" data-name="Path 8" d="M383.546,54.149a10.271,10.271,0,0,1-2.066-.211,9.439,9.439,0,0,1-1.974-.611,11.159,11.159,0,0,1-1.833-.963,10.6,10.6,0,0,1-4.7-8.784,10.283,10.283,0,0,1,.211-2.068,9.609,9.609,0,0,1,.611-1.974,10.407,10.407,0,0,1,.963-1.831,8.712,8.712,0,0,1,1.314-1.6,10.564,10.564,0,0,1,1.6-1.316,13.917,13.917,0,0,1,1.833-.986,9.461,9.461,0,0,1,1.974-.587,10.2,10.2,0,0,1,4.133,0,9.462,9.462,0,0,1,1.974.587,13.928,13.928,0,0,1,1.833.986,10.765,10.765,0,0,1,2.912,2.914,12.23,12.23,0,0,1,.985,1.831,11.008,11.008,0,0,1,.587,1.974,10.285,10.285,0,0,1,.213,2.068,10.6,10.6,0,0,1-3.1,7.469,8.606,8.606,0,0,1-1.6,1.314,11.166,11.166,0,0,1-1.833.963,9.44,9.44,0,0,1-1.974.611A10.271,10.271,0,0,1,383.546,54.149Zm138.9,0h0a10.571,10.571,0,0,0,10.571-10.57h0a10.557,10.557,0,0,0-10.571-10.571h0a10.57,10.57,0,0,0,0,21.141Zm-46.3,0h0a10.571,10.571,0,0,0,10.571-10.57h0a10.557,10.557,0,0,0-10.571-10.571h0a10.57,10.57,0,0,0,0,21.141Zm-46.3,0h0a10.571,10.571,0,0,0,10.57-10.57h0a10.556,10.556,0,0,0-10.57-10.571h0a10.57,10.57,0,1,0,0,21.141Zm140.964-.211a9.438,9.438,0,0,0,1.974-.611,9.545,9.545,0,0,0,1.833-.963,9.719,9.719,0,0,0,1.62-1.314,12.007,12.007,0,0,0,1.292-1.6,9.928,9.928,0,0,0,.987-1.833,9.619,9.619,0,0,0,.587-1.972,10.2,10.2,0,0,0,0-4.134,9.631,9.631,0,0,0-.587-1.974,9.217,9.217,0,0,0-.987-1.831,9.6,9.6,0,0,0-1.292-1.6,9.728,9.728,0,0,0-1.62-1.316,11.472,11.472,0,0,0-1.833-.986,9.461,9.461,0,0,0-1.974-.587,10.2,10.2,0,0,0-4.133,0,9.847,9.847,0,0,0-1.974.587,13.932,13.932,0,0,0-1.833.986,10.7,10.7,0,0,0-1.6,1.316,9.718,9.718,0,0,0-1.315,1.6,10.411,10.411,0,0,0-.963,1.831,11.306,11.306,0,0,0-.611,1.974,10.391,10.391,0,0,0-.211,2.068,10.585,10.585,0,0,0,10.571,10.57A10.12,10.12,0,0,0,570.81,53.937ZM391.016,85.673a10.545,10.545,0,0,0,0-14.939,8.559,8.559,0,0,0-1.6-1.316,10.476,10.476,0,0,0-1.833-.963,9.606,9.606,0,0,0-1.974-.611,10.2,10.2,0,0,0-4.133,0,9.605,9.605,0,0,0-1.974.611,11.375,11.375,0,0,0-1.833.963,10.482,10.482,0,0,0-1.6,1.316,10.579,10.579,0,0,0,1.6,16.255,13.926,13.926,0,0,0,1.833.987,9.629,9.629,0,0,0,1.974.587,10.268,10.268,0,0,0,2.066.21A10.638,10.638,0,0,0,391.016,85.673Zm131.428,3.1h0A10.556,10.556,0,0,0,533.015,78.2h0a10.572,10.572,0,0,0-10.571-10.571h0a10.57,10.57,0,0,0,0,21.141Zm-46.3,0h0A10.556,10.556,0,0,0,486.715,78.2h0a10.572,10.572,0,0,0-10.571-10.571h0a10.57,10.57,0,0,0,0,21.141Zm-46.3,0h0a10.555,10.555,0,0,0,10.57-10.57h0a10.571,10.571,0,0,0-10.57-10.571h0a10.57,10.57,0,1,0,0,21.141Zm146.391-3.1a9.6,9.6,0,0,0,1.292-1.6,9.217,9.217,0,0,0,.987-1.831,11.329,11.329,0,0,0,.609-1.972,11.383,11.383,0,0,0,0-4.136,11.987,11.987,0,0,0-.609-1.972,9.971,9.971,0,0,0-.987-1.833,11.994,11.994,0,0,0-1.292-1.6A10.572,10.572,0,1,0,562.87,86.989a13.941,13.941,0,0,0,1.833.987,10.03,10.03,0,0,0,1.974.587,10.267,10.267,0,0,0,2.066.21A10.651,10.651,0,0,0,576.236,85.673ZM385.612,123.211a11.306,11.306,0,0,0,1.974-.611,9.2,9.2,0,0,0,1.833-.987,9.465,9.465,0,0,0,1.6-1.291,10.575,10.575,0,0,0,0-14.964,9.66,9.66,0,0,0-1.6-1.316,10.469,10.469,0,0,0-1.833-.962,11.193,11.193,0,0,0-1.974-.612,10.2,10.2,0,0,0-4.133,0,11.192,11.192,0,0,0-1.974.612,11.366,11.366,0,0,0-1.833.962,12.192,12.192,0,0,0-1.6,1.316,10.578,10.578,0,0,0,0,14.964,11.893,11.893,0,0,0,1.6,1.291,9.889,9.889,0,0,0,1.833.987,11.3,11.3,0,0,0,1.974.611,11.451,11.451,0,0,0,4.133,0Zm136.831.188h0a10.557,10.557,0,0,0,10.571-10.571h0a10.571,10.571,0,0,0-10.571-10.57h0a10.57,10.57,0,0,0,0,21.141Zm-46.3,0h0a10.557,10.557,0,0,0,10.571-10.571h0a10.571,10.571,0,0,0-10.571-10.57h0a10.57,10.57,0,0,0,0,21.141Zm-46.3,0h0a10.556,10.556,0,0,0,10.57-10.571h0a10.571,10.571,0,0,0-10.57-10.57h0a10.57,10.57,0,1,0,0,21.141Zm140.964-.188a11.3,11.3,0,0,0,1.974-.611,8.594,8.594,0,0,0,1.833-.987,9.639,9.639,0,0,0,1.6-1.291,10.578,10.578,0,0,0,0-14.964,9.841,9.841,0,0,0-1.6-1.316,9.7,9.7,0,0,0-1.833-.962,11.192,11.192,0,0,0-1.974-.612,10.2,10.2,0,0,0-4.133,0,11.757,11.757,0,0,0-1.974.612,10.193,10.193,0,0,0-1.808.962,11.1,11.1,0,0,0-1.623,1.316,10.578,10.578,0,0,0,0,14.964,10.854,10.854,0,0,0,1.623,1.291,8.969,8.969,0,0,0,1.808.987,11.88,11.88,0,0,0,1.974.611,12.274,12.274,0,0,0,2.066.188A12.082,12.082,0,0,0,570.81,123.211Z" transform="translate(-33.008 579.315) rotate(-90)" fill="url(#linear-gradient)"/>
</svg>
